<svg width="555" height="107" viewBox="0 0 555 107" fill="none" xmlns="http://www.w3.org/2000/svg">
    <path
        d="M44.2109 24.6799C47.252 22.9721 50.9628 22.9721 54.0039 24.6799L72.042 34.8098C75.1939 36.5801 77.1445 39.9135 77.1445 43.5286V63.3147C77.1445 66.9297 75.1939 70.2632 72.042 72.0334L54.0039 82.1633C50.9629 83.8712 47.252 83.8712 44.2109 82.1633L26.1729 72.0334C23.021 70.2632 21.0704 66.9297 21.0703 63.3147V43.5286C21.0703 39.9136 23.021 36.5801 26.1729 34.8098L44.2109 24.6799ZM45.3574 43.4622C44.0241 42.6924 42.3574 43.655 42.3574 45.1946V61.6487C42.3574 63.1882 44.0241 64.1508 45.3574 63.3811L59.6074 55.1536C60.9407 54.3838 60.9407 52.4595 59.6074 51.6897L45.3574 43.4622Z"
        fill="url(#paint0_linear_3430_32789)" />
    <path
        d="M43.4834 1.47095C46.9758 -0.490348 51.239 -0.490348 54.7314 1.47095L62.8096 6.00708L58.0703 14.7122L54.4629 12.6868C51.1371 10.819 47.0778 10.8191 43.752 12.6868L15.708 28.4368C12.261 30.3727 10.1272 34.0185 10.127 37.9719V68.9534C10.1271 72.9068 12.261 76.5525 15.708 78.4885L43.752 94.2385C47.0779 96.1063 51.137 96.1064 54.4629 94.2385L82.5068 78.4885C85.9537 76.5525 88.0877 72.9068 88.0879 68.9534V64.3049H98.2148V74.3284C98.2147 78.4798 95.974 82.308 92.3545 84.3411L54.7314 105.471C51.2389 107.432 46.9759 107.432 43.4834 105.471L5.86035 84.3411C2.24077 82.308 0.000141133 78.4798 0 74.3284V32.6135C0.000202006 28.4619 2.24053 24.6328 5.86035 22.5999L43.4834 1.47095ZM93.1543 59.22C94.501 59.22 95.7928 59.7551 96.7451 60.7073C97.6002 61.5624 98.1179 62.6913 98.2148 63.8879V64.2981H88.0879V63.967C88.1679 62.7411 88.6896 61.5813 89.5635 60.7073C90.5158 59.7551 91.8076 59.22 93.1543 59.22ZM73.2637 13.5198C74.2473 13.2297 75.2881 13.2471 76.251 13.5559L92.3545 22.5999C95.9743 24.6328 98.2146 28.462 98.2148 32.6135V44.2161C98.1198 45.416 97.6024 46.5492 96.7451 47.4065C95.7928 48.3586 94.5009 48.8938 93.1543 48.8938C91.8077 48.8938 90.5158 48.3586 89.5635 47.4065C88.6874 46.5304 88.166 45.3662 88.0879 44.137V37.9719C88.0876 34.0186 85.9537 30.3728 82.5068 28.4368L71.2451 22.1116C70.5823 21.4961 70.0893 20.7096 69.8291 19.8274C69.4482 18.5357 69.5963 17.1449 70.2402 15.9622C70.8843 14.7796 71.9721 13.9008 73.2637 13.5198ZM63.1133 6.17798C64.1456 6.83525 64.9146 7.84731 65.2627 9.02759C65.6434 10.3191 65.4964 11.7092 64.8525 12.8918C64.2086 14.0745 63.1207 14.9532 61.8291 15.3342C60.5511 15.7111 59.2807 15.3646 58.1084 14.7336L58.0703 14.7122L62.8096 6.00708L63.1133 6.17798Z"
        fill="url(#paint1_linear_3430_32789)" />
    <path
        d="M168.946 25.751C170.64 25.751 172.077 26.3156 173.258 27.445C174.49 28.523 175.106 29.8833 175.106 31.526V75.416C175.106 77.0073 174.49 78.3676 173.258 79.497C172.077 80.6263 170.64 81.191 168.946 81.191C167.252 81.191 165.789 80.6263 164.557 79.497C163.376 78.3676 162.786 77.0073 162.786 75.416V59.092H142.535V75.416C142.535 77.0586 141.945 78.4446 140.764 79.574C139.583 80.652 138.12 81.191 136.375 81.191C134.681 81.191 133.218 80.6263 131.986 79.497C130.805 78.3676 130.215 77.0073 130.215 75.416V31.526C130.215 29.8833 130.805 28.523 131.986 27.445C133.218 26.3156 134.681 25.751 136.375 25.751C138.12 25.751 139.583 26.3156 140.764 27.445C141.945 28.523 142.535 29.8833 142.535 31.526V48.158H162.786V31.526C162.786 29.8833 163.376 28.523 164.557 27.445C165.789 26.3156 167.252 25.751 168.946 25.751Z"
        fill="#141414" />
    <path
        d="M192.023 81.191C190.329 81.191 188.866 80.6263 187.634 79.497C186.453 78.3676 185.863 77.0073 185.863 75.416V31.526C185.863 29.8833 186.453 28.523 187.634 27.445C188.866 26.3156 190.329 25.751 192.023 25.751C193.768 25.751 195.231 26.3156 196.412 27.445C197.593 28.523 198.183 29.8833 198.183 31.526V75.416C198.183 77.0586 197.593 78.4446 196.412 79.574C195.231 80.652 193.768 81.191 192.023 81.191Z"
        fill="#141414" />
    <path
        d="M229.81 81.961C227.346 81.961 225.395 81.3706 223.958 80.19C222.52 79.0093 221.365 77.2383 220.493 74.877L205.555 34.067C205.247 33.1943 205.093 32.373 205.093 31.603C205.093 29.909 205.657 28.523 206.787 27.445C207.916 26.3156 209.405 25.751 211.253 25.751C214.281 25.751 216.437 27.599 217.721 31.295L229.425 65.56H230.195L241.976 31.295C243.259 27.599 245.415 25.751 248.444 25.751C250.292 25.751 251.755 26.3156 252.833 27.445C253.962 28.523 254.527 29.8833 254.527 31.526C254.527 32.3473 254.373 33.1943 254.065 34.067L239.204 74.877C238.331 77.2383 237.15 79.0093 235.662 80.19C234.224 81.3706 232.274 81.961 229.81 81.961Z"
        fill="#141414" />
    <path
        d="M297.932 69.41C299.78 69.41 301.269 69.949 302.398 71.027C303.528 72.105 304.092 73.414 304.092 74.954C304.092 76.4426 303.528 77.726 302.398 78.804C301.269 79.882 299.78 80.421 297.932 80.421H267.44C265.695 80.421 264.232 79.882 263.051 78.804C261.871 77.6746 261.28 76.2886 261.28 74.646V32.296C261.28 30.6533 261.871 29.293 263.051 28.215C264.283 27.0856 265.746 26.521 267.44 26.521H297.162C299.01 26.521 300.499 27.06 301.628 28.138C302.758 29.216 303.322 30.4993 303.322 31.988C303.322 33.4766 302.758 34.76 301.628 35.838C300.499 36.916 299.01 37.455 297.162 37.455H273.6V48.158H290.155C291.952 48.158 293.389 48.697 294.467 49.775C295.597 50.8016 296.161 52.0336 296.161 53.471C296.161 54.9083 295.597 56.166 294.467 57.244C293.389 58.2706 291.952 58.784 290.155 58.784H273.6V69.41H297.932Z"
        fill="#141414" />
    <path
        d="M328.85 81.961C325.77 81.961 322.793 81.4733 319.918 80.498C317.044 79.574 314.605 78.2393 312.603 76.494C309.626 73.9273 308.137 71.4376 308.137 69.025C308.137 67.3823 308.676 66.0476 309.754 65.021C310.884 63.943 312.321 63.404 314.066 63.404C314.939 63.404 315.735 63.6093 316.453 64.02C317.223 64.4306 318.147 65.175 319.225 66.253C320.868 67.9983 322.434 69.2303 323.922 69.949C325.462 70.6163 327.259 70.95 329.312 70.95C332.495 70.95 334.882 70.3853 336.473 69.256C338.116 68.0753 338.937 66.638 338.937 64.944C338.937 63.7633 338.45 62.7623 337.474 61.941C336.55 61.1196 335.37 60.4523 333.932 59.939C332.546 59.3743 330.544 58.707 327.926 57.937C324.076 56.8076 320.894 55.704 318.378 54.626C315.914 53.548 313.784 51.9566 311.987 49.852C310.191 47.7473 309.292 45.0266 309.292 41.69C309.292 38.5586 310.114 35.7353 311.756 33.22C313.399 30.7046 315.76 28.7026 318.84 27.214C321.972 25.7253 325.668 24.981 329.928 24.981C333.06 24.981 336.011 25.4686 338.783 26.444C341.607 27.4193 343.968 28.754 345.867 30.448C347.151 31.6286 348.126 32.8606 348.793 34.144C349.512 35.376 349.871 36.5566 349.871 37.686C349.871 39.3286 349.307 40.689 348.177 41.767C347.099 42.7936 345.688 43.307 343.942 43.307C342.967 43.307 342.094 43.1016 341.324 42.691C340.606 42.2803 339.733 41.5103 338.706 40.381C337.218 38.7383 335.78 37.5833 334.394 36.916C333.06 36.2486 331.443 35.915 329.543 35.915C327.079 35.915 325.154 36.4283 323.768 37.455C322.434 38.4816 321.766 39.7393 321.766 41.228C321.766 42.4086 322.228 43.4096 323.152 44.231C324.128 45.0523 325.308 45.7453 326.694 46.31C328.132 46.8233 330.159 47.465 332.777 48.235C336.679 49.3643 339.861 50.468 342.325 51.546C344.789 52.624 346.92 54.2153 348.716 56.32C350.513 58.3733 351.411 61.0683 351.411 64.405C351.411 67.6903 350.539 70.6676 348.793 73.337C347.048 76.0063 344.481 78.111 341.093 79.651C337.705 81.191 333.624 81.961 328.85 81.961Z"
        fill="#141414" />
    <path
        d="M381.04 26.521C385.455 26.521 389.305 27.2653 392.59 28.754C395.927 30.2426 398.468 32.373 400.213 35.145C402.01 37.8656 402.908 41.074 402.908 44.77C402.908 48.466 402.01 51.7 400.213 54.472C398.468 57.244 395.927 59.3743 392.59 60.863C389.305 62.3516 385.455 63.096 381.04 63.096H372.031V75.416C372.031 77.0586 371.441 78.4446 370.26 79.574C369.079 80.652 367.616 81.191 365.871 81.191C364.177 81.191 362.714 80.6263 361.482 79.497C360.301 78.3676 359.711 77.0073 359.711 75.416V32.296C359.711 30.6533 360.301 29.293 361.482 28.215C362.663 27.0856 364.126 26.521 365.871 26.521H381.04ZM381.04 52.085C383.915 52.085 386.199 51.4176 387.893 50.083C389.587 48.7483 390.434 46.9773 390.434 44.77C390.434 42.5626 389.561 40.7916 387.816 39.457C386.122 38.1223 383.863 37.455 381.04 37.455H372.031V52.085H381.04Z"
        fill="#141414" />
    <path
        d="M452.962 70.18C453.937 72.5413 454.425 74.2866 454.425 75.416C454.425 77.11 453.834 78.496 452.654 79.574C451.524 80.652 450.061 81.191 448.265 81.191C446.725 81.191 445.39 80.6776 444.261 79.651C443.131 78.573 442.259 77.0843 441.643 75.185L439.256 68.409H418.543L416.156 75.185C415.54 77.0843 414.641 78.573 413.461 79.651C412.331 80.6776 411.022 81.191 409.534 81.191C407.737 81.191 406.248 80.652 405.068 79.574C403.938 78.496 403.374 77.11 403.374 75.416C403.374 74.2866 403.861 72.5413 404.837 70.18L418.851 33.528C420.031 30.4993 421.366 28.3176 422.855 26.983C424.395 25.6483 426.397 24.981 428.861 24.981C431.376 24.981 433.404 25.6483 434.944 26.983C436.484 28.3176 437.818 30.4993 438.948 33.528L452.962 70.18ZM429.246 39.534H428.476L422.008 57.475H435.791L429.246 39.534Z"
        fill="#141414" />
    <path
        d="M481.985 81.961C477.416 81.961 473.361 81.0113 469.819 79.112C466.277 77.2126 463.53 74.569 461.58 71.181C459.629 67.793 458.654 63.9943 458.654 59.785V47.08C458.654 42.8706 459.629 39.0976 461.58 35.761C463.53 32.373 466.277 29.7293 469.819 27.83C473.361 25.9306 477.416 24.981 481.985 24.981C485.116 24.981 488.093 25.4943 490.917 26.521C493.74 27.5476 496.101 28.8823 498.001 30.525C499.284 31.603 500.259 32.758 500.927 33.99C501.594 35.222 501.928 36.454 501.928 37.686C501.928 39.3286 501.389 40.689 500.311 41.767C499.233 42.7936 497.795 43.307 495.999 43.307C495.075 43.307 494.228 43.1016 493.458 42.691C492.739 42.2803 491.892 41.536 490.917 40.458C489.479 38.8153 488.093 37.6603 486.759 36.993C485.424 36.2743 483.833 35.915 481.985 35.915C478.853 35.915 476.261 36.9673 474.208 39.072C472.154 41.1766 471.128 43.846 471.128 47.08V59.785C471.128 63.0703 472.154 65.7653 474.208 67.87C476.261 69.9233 478.853 70.95 481.985 70.95C484.038 70.95 485.809 70.6163 487.298 69.949C488.786 69.2303 490.249 68.024 491.687 66.33C492.611 65.252 493.458 64.5076 494.228 64.097C494.998 63.635 495.845 63.404 496.769 63.404C498.565 63.404 500.003 63.9173 501.081 64.944C502.159 65.9706 502.698 67.331 502.698 69.025C502.698 70.2056 502.287 71.489 501.466 72.875C500.696 74.261 499.566 75.5443 498.078 76.725C496.178 78.3163 493.843 79.574 491.071 80.498C488.35 81.4733 485.321 81.961 481.985 81.961Z"
        fill="#141414" />
    <path
        d="M547.957 69.41C549.805 69.41 551.293 69.949 552.423 71.027C553.552 72.105 554.117 73.414 554.117 74.954C554.117 76.4426 553.552 77.726 552.423 78.804C551.293 79.882 549.805 80.421 547.957 80.421H517.465C515.719 80.421 514.256 79.882 513.076 78.804C511.895 77.6746 511.305 76.2886 511.305 74.646V32.296C511.305 30.6533 511.895 29.293 513.076 28.215C514.308 27.0856 515.771 26.521 517.465 26.521H547.187C549.035 26.521 550.523 27.06 551.653 28.138C552.782 29.216 553.347 30.4993 553.347 31.988C553.347 33.4766 552.782 34.76 551.653 35.838C550.523 36.916 549.035 37.455 547.187 37.455H523.625V48.158H540.18C541.976 48.158 543.414 48.697 544.492 49.775C545.621 50.8016 546.186 52.0336 546.186 53.471C546.186 54.9083 545.621 56.166 544.492 57.244C543.414 58.2706 541.976 58.784 540.18 58.784H523.625V69.41H547.957Z"
        fill="#141414" />
    <defs>
        <linearGradient id="paint0_linear_3430_32789" x1="21.4824" y1="52.1385" x2="76.2324"
            y2="52.1386" gradientUnits="userSpaceOnUse">
            <stop stop-color="#57C73B" />
            <stop offset="1" stop-color="#33AB84" />
        </linearGradient>
        <linearGradient id="paint1_linear_3430_32789" x1="7.02746" y1="51.4904" x2="90.4257"
            y2="51.4904" gradientUnits="userSpaceOnUse">
            <stop stop-color="#EEA827" />
            <stop offset="1" stop-color="#58B441" />
        </linearGradient>
    </defs>
</svg>
    